<svg xmlns="http://www.w3.org/2000/svg" viewBox="0 0 32 32">
  <rect x="8.5" y="2" width="3" height="7" rx="1.5" fill="#2f4763"/>
  <rect x="20.5" y="2" width="3" height="7" rx="1.5" fill="#2f4763"/>
  <rect x="3" y="6" width="26" height="24" rx="4" fill="#ffffff" stroke="#2f4763" stroke-width="1.6"/>
  <path d="M3 10a4 4 0 0 1 4-4h18a4 4 0 0 1 4 4v3H3v-3z" fill="#3d5a80"/>
  <rect x="9" y="17" width="14" height="9.5" rx="2.2" fill="#e07a5f"/>
  <path d="M16 19.1l1.05 2.13 2.35.34-1.7 1.66.4 2.34-2.1-1.1-2.1 1.1.4-2.34-1.7-1.66 2.35-.34z" fill="#ffffff"/>
</svg>
